# xmcd
#
# Track frame offsets:
#	150
#	20895
#	33653
#	60276
#	71259
#	92384
#	112346
#	135054
#	159996
#	174763
#	192123
#	213741
#	235053
#	255168
#
# Disc length: 3744 seconds
#
# Revision: 0
# Processed by: cddbd v1.5.1PL0 Copyright (c) Steve Scherf et al.
# Submitted via: dBpowerAMP V4.0
#
DISCID=ab0e9e0e
DTITLE=Spanish Memories - The Best Of Acoustic Guitar
DYEAR=1900
DGENRE=
TTITLE0=Nova Menco - Mediterranean Breeze
TTITLE1=Oscar Sher - Cancion Del Sur
TTITLE2=Shastro - Lavender Moon
TTITLE3=Willie and Lobo - Between The Water
TTITLE4=La Vienta - Tu Sonrisa
TTITLE5=Govi - Chili On Your Huevos
TTITLE6=Armik - For Your Eyes
TTITLE7=Willie and Lobo - - Flamenco Mexicano
TTITLE8=Francis Purcell - Besame Mucho
TTITLE9=Govi - Gypsy Heart
TTITLE10=La Vienta - Train To Paris
TTITLE11=Armik - Dancing Shadows
TTITLE12=Nova Menco - Tigris Palase
TTITLE13=Shastro - Bandole
EXTD=dimbur
EXTT0=
EXTT1=
EXTT2=
EXTT3=
EXTT4=
EXTT5=
EXTT6=
EXTT7=
EXTT8=
EXTT9=
EXTT10=
EXTT11=
EXTT12=
EXTT13=
PLAYORDER=
